<svg width="826" height="161" viewBox="0 0 826 161" fill="none" xmlns="http://www.w3.org/2000/svg">
<path d="M129.225 0L78.9925 28.8496V118.891L51.2765 134.957L23.3911 118.878V86.7314L51.2765 70.808L69.2066 81.2064V55.1974L51.1201 44.9293L0.900391 74.1048V131.817L51.2895 160.836L101.509 131.817V41.789L129.395 25.7093L157.267 41.789V73.792L129.395 90.0151L111.308 79.5255V105.404L129.225 115.737L179.94 86.8877V28.8496L129.225 0Z" fill="#6C00F6"/>
<path fill-rule="evenodd" clip-rule="evenodd" d="M423.937 125.002H446.454V1.57666H423.937V125.002ZM279.181 37.2673C289.853 37.2673 298.701 41.5544 305.698 50.1155C312.708 58.6765 316.201 69.2965 316.201 81.9752C316.201 94.6539 312.695 105.274 305.698 113.835C298.687 122.396 289.853 126.683 279.181 126.683C271.623 126.683 265.056 124.351 259.505 119.673C254.058 114.89 250.057 108.44 247.49 100.322V158.36H224.974V38.9353H247.49V63.6151C250.044 55.4971 254.058 49.0991 259.505 44.4342C265.069 39.6519 271.623 37.2673 279.181 37.2673ZM270.998 106.16C277.109 106.16 282.282 103.88 286.504 99.3188C290.726 94.6539 292.837 88.8683 292.837 81.9752C292.837 75.082 290.726 69.518 286.504 64.9573C282.282 60.2923 277.109 57.9468 270.998 57.9468C264.209 57.9468 258.605 60.2272 254.149 64.7879C249.706 69.3486 247.477 75.069 247.477 81.9622C247.477 88.8553 249.706 94.6409 254.149 99.3058C258.592 103.867 264.209 106.147 270.998 106.147V106.16ZM322.182 81.9752C322.182 94.6539 326.573 105.274 335.355 113.835C344.138 122.396 355.097 126.683 368.219 126.683C381.34 126.683 392.299 122.396 401.082 113.835C409.864 105.274 414.255 94.6539 414.255 81.9752C414.255 69.2965 409.864 58.6765 401.082 50.1155C392.299 41.5544 381.34 37.2673 368.219 37.2673C355.097 37.2673 344.138 41.5544 335.355 50.1155C326.573 58.6765 322.182 69.2965 322.182 81.9752ZM352.035 99.3188C347.695 94.6539 345.532 88.8683 345.532 81.9752C345.532 75.082 347.695 69.518 352.035 64.9573C356.374 60.2923 361.768 57.9468 368.219 57.9468C374.669 57.9468 380.063 60.2272 384.402 64.7879C388.742 69.3486 390.905 75.069 390.905 81.9622C390.905 88.8553 388.742 94.6409 384.402 99.3058C380.063 103.867 374.669 106.147 368.219 106.147C361.768 106.147 356.374 103.867 352.035 99.3058V99.3188ZM654.474 113.835C645.691 105.274 641.3 94.6539 641.3 81.9752C641.3 69.2965 645.691 58.6765 654.474 50.1155C663.256 41.5544 674.215 37.2673 687.337 37.2673C700.458 37.2673 711.417 41.5544 720.2 50.1155C728.982 58.6765 733.374 69.2965 733.374 81.9752C733.374 94.6539 728.982 105.274 720.2 113.835C711.417 122.396 700.458 126.683 687.337 126.683C674.215 126.683 663.269 122.396 654.474 113.835ZM664.638 81.9752C664.638 88.8683 666.801 94.6539 671.14 99.3188C675.479 103.88 680.874 106.16 687.324 106.16C693.774 106.16 699.169 103.88 703.508 99.3188C707.847 94.6539 710.01 88.8683 710.01 81.9752C710.01 75.082 707.847 69.3486 703.508 64.8009C699.169 60.2402 693.774 57.9599 687.324 57.9599C680.874 57.9599 675.479 60.2923 671.14 64.9703C666.801 69.531 664.638 75.1993 664.638 81.9882V81.9752ZM793.301 37.2673C802.866 37.2673 810.541 40.6032 816.313 47.2748C822.203 53.9465 825.148 62.4554 825.148 72.7886V124.989H802.631V76.789C802.631 71.225 800.859 66.6643 797.289 63.1069C793.731 59.5496 789.288 57.7644 783.945 57.7644C777.938 57.7644 773.052 59.5496 769.273 63.1069C765.494 66.6643 763.605 71.225 763.605 76.789V124.989H741.088V38.9353H763.605V60.9569C765.833 53.6207 769.56 47.8351 774.785 43.6132C780.127 39.3913 786.291 37.2804 793.301 37.2804V37.2673ZM500.544 102.055L523.556 39.0134H546.411L499.045 158.438H476.19L488.204 128.077L453.008 39.0134H477.362L500.544 102.055ZM610.443 38.9353V60.5008C605.752 46.4278 594.168 38.9353 578.753 38.9353C555.481 38.9353 541.72 59.2629 541.72 80.633C541.72 102.003 555.376 123.999 578.753 123.999C594.168 123.999 605.752 112.884 610.443 98.8107V115.32C610.443 122.331 608.163 128.103 603.602 132.664C599.042 137.225 593.491 139.505 586.923 139.505C578.024 139.505 571.417 135.062 567.078 126.162L546.893 136.834C550.672 143.844 556.067 149.447 563.077 153.682C570.088 157.904 578.037 160.015 586.923 160.015C600.045 160.015 611.004 155.741 619.786 147.167C628.569 138.606 632.96 127.986 632.96 115.307V38.9353H610.443ZM603.941 96.9864C599.602 101.326 594.155 103.489 587.601 103.489C581.047 103.489 575.926 101.326 571.586 96.9864C567.247 92.543 565.084 87.0962 565.084 80.6461C565.084 74.1959 567.247 68.8013 571.586 64.4621C575.926 60.1229 581.255 57.9599 587.601 57.9599C593.947 57.9599 599.615 60.1229 603.941 64.4621C608.28 68.684 610.443 74.0787 610.443 80.6461C610.443 87.2135 608.28 92.6602 603.941 96.9864Z" fill="white"/>
</svg>
